<svg width="82" height="82" viewBox="0 0 82 82" fill="none" xmlns="http://www.w3.org/2000/svg">
<rect width="82" height="82" rx="41" fill="url(#paint0_linear)"/>
<circle cx="41" cy="41" r="34" fill="#494949"/>
<rect x="31" y="29" width="21" height="4" rx="2" fill="white"/>
<rect x="31" y="39" width="21" height="4" rx="2" fill="white"/>
<rect x="31" y="49" width="21" height="4" rx="2" fill="white"/>
<path d="M28 31C26.6739 31 25.4021 31.5268 24.4645 32.4645C23.5268 33.4021 23 34.6739 23 36C23 37.3261 23.5268 38.5979 24.4645 39.5355C25.4021 40.4732 26.6739 41 28 41" stroke="white" stroke-width="4"/>
<path d="M55 51C56.3261 51 57.5979 50.4732 58.5355 49.5355C59.4732 48.5979 60 47.3261 60 46C60 44.6739 59.4732 43.4021 58.5355 42.4645C57.5979 41.5268 56.3261 41 55 41" stroke="white" stroke-width="4"/>
<defs>
<linearGradient id="paint0_linear" x1="41" y1="0" x2="41" y2="82" gradientUnits="userSpaceOnUse">
<stop stop-color="#FFBE55"/>
<stop offset="1" stop-color="#F15A24"/>
</linearGradient>
</defs>
</svg>
