<svg width="68" height="68" viewBox="0 0 68 68" fill="none" xmlns="http://www.w3.org/2000/svg">
<circle cx="34" cy="34" r="34" fill="white" fill-opacity="0.1"/>
<rect x="24" y="22" width="21" height="4" rx="2" fill="#C4C4C4" fill-opacity="0.3"/>
<rect x="24" y="32" width="21" height="4" rx="2" fill="#C4C4C4" fill-opacity="0.3"/>
<rect x="24" y="42" width="21" height="4" rx="2" fill="#C4C4C4" fill-opacity="0.3"/>
<path d="M21 24C19.6739 24 18.4021 24.5268 17.4645 25.4645C16.5268 26.4021 16 27.6739 16 29C16 30.3261 16.5268 31.5979 17.4645 32.5355C18.4021 33.4732 19.6739 34 21 34" stroke="white" stroke-opacity="0.3" stroke-width="4"/>
<path d="M48 44C49.3261 44 50.5979 43.4732 51.5355 42.5355C52.4732 41.5979 53 40.3261 53 39C53 37.6739 52.4732 36.4021 51.5355 35.4645C50.5979 34.5268 49.3261 34 48 34" stroke="white" stroke-opacity="0.3" stroke-width="4"/>
</svg>
