<svg width="120" height="120" viewBox="0 0 120 120" fill="none" xmlns="http://www.w3.org/2000/svg">
<g clip-path="url(#clip0)">
<path d="M59.952 120C93.0625 120 119.904 93.1586 119.904 60.048C119.904 26.9375 93.0625 0.0960579 59.952 0.0960579C26.8414 0.0960579 0 26.9375 0 60.048C0 93.1586 26.8414 120 59.952 120Z" fill="#063F66"/>
<path d="M17.486 17.5821C40.9287 -5.86069 78.9751 -5.86069 102.418 17.5821C125.861 41.0248 125.861 79.0713 102.418 102.514" fill="#022730"/>
<path d="M32.0898 107.318C32.4081 107.318 32.6662 104.995 32.6662 102.13C32.6662 99.2644 32.4081 96.9416 32.0898 96.9416C31.7714 96.9416 31.5133 99.2644 31.5133 102.13C31.5133 104.995 31.7714 107.318 32.0898 107.318Z" fill="#DCF9F6"/>
<path d="M32.0899 102.898C34.9552 102.898 37.278 102.64 37.278 102.322C37.278 102.003 34.9552 101.745 32.0899 101.745C29.2245 101.745 26.9017 102.003 26.9017 102.322C26.9017 102.64 29.2245 102.898 32.0899 102.898Z" fill="#DCF9F6"/>
<path d="M102.844 36.6714C104.865 34.6404 106.321 32.812 106.095 32.5874C105.869 32.3628 104.048 33.8272 102.027 35.8581C100.005 37.8891 98.5498 39.7175 98.7754 39.9421C99.0011 40.1667 100.823 38.7023 102.844 36.6714Z" fill="#DCF9F6"/>
<path d="M101.967 36.7339C103.989 38.7648 105.81 40.2292 106.036 40.0046C106.261 39.78 104.806 37.9515 102.784 35.9206C100.763 33.8897 98.9418 32.4253 98.7162 32.6499C98.4905 32.8745 99.9461 34.7029 101.967 36.7339Z" fill="#DCF9F6"/>
<path d="M88.0066 22.578C88.1127 22.578 88.1988 21.5457 88.1988 20.2722C88.1988 18.9987 88.1127 17.9663 88.0066 17.9663C87.9005 17.9663 87.8145 18.9987 87.8145 20.2722C87.8145 21.5457 87.9005 22.578 88.0066 22.578Z" fill="#DCF9F6"/>
<path d="M88.0065 20.4644C89.28 20.4644 90.3124 20.3784 90.3124 20.2722C90.3124 20.1661 89.28 20.0801 88.0065 20.0801C86.733 20.0801 85.7007 20.1661 85.7007 20.2722C85.7007 20.3784 86.733 20.4644 88.0065 20.4644Z" fill="#DCF9F6"/>
<path d="M42.9823 24.5809C42.0019 23.6104 41.1465 22.8847 41.0718 22.9601C40.9972 23.0356 41.7315 23.8835 42.712 24.854C43.6925 25.8246 44.5478 26.5502 44.6225 26.4748C44.6971 26.3994 43.9628 25.5515 42.9823 24.5809Z" fill="#DCF9F6"/>
<path d="M43.0075 24.8143C43.988 23.8437 44.7223 22.9958 44.6476 22.9204C44.573 22.8449 43.7176 23.5706 42.7371 24.5411C41.7566 25.5117 41.0223 26.3596 41.097 26.435C41.1716 26.5105 42.027 25.7848 43.0075 24.8143Z" fill="#DCF9F6"/>
<path d="M23.3308 87.6402C22.3528 86.6671 21.4993 85.9393 21.4244 86.0145C21.3496 86.0898 22.0817 86.9396 23.0597 87.9126C24.0377 88.8856 24.8912 89.6135 24.9661 89.5382C25.0409 89.463 24.3088 88.6132 23.3308 87.6402Z" fill="#DCF9F6"/>
<path d="M23.4672 87.8536C24.4452 86.8806 25.1773 86.0308 25.1025 85.9556C25.0276 85.8803 24.1741 86.6082 23.1961 87.5812C22.2181 88.5542 21.486 89.404 21.5608 89.4792C21.6357 89.5544 22.4892 88.8266 23.4672 87.8536Z" fill="#DCF9F6"/>
<path d="M73.0132 18.1194C73.4589 17.6646 73.7587 17.2357 73.6829 17.1614C73.6071 17.0871 73.1844 17.3956 72.7387 17.8505C72.293 18.3053 71.9932 18.7342 72.069 18.8085C72.1448 18.8828 72.5675 18.5743 73.0132 18.1194Z" fill="#DCF9F6"/>
<path d="M72.7629 18.2069C73.2086 18.6617 73.6313 18.9702 73.7071 18.8959C73.7829 18.8216 73.4831 18.3927 73.0374 17.9379C72.5918 17.4831 72.169 17.1746 72.0932 17.2488C72.0174 17.3231 72.3172 17.752 72.7629 18.2069Z" fill="#DCF9F6"/>
<path d="M51.9033 107.443C52.3489 106.988 52.6486 106.559 52.5728 106.485C52.497 106.411 52.0743 106.72 51.6287 107.174C51.1831 107.629 50.8834 108.058 50.9592 108.133C51.035 108.207 51.4577 107.898 51.9033 107.443Z" fill="#DCF9F6"/>
<path d="M51.6897 107.552C52.1353 108.007 52.558 108.316 52.6338 108.241C52.7096 108.167 52.4099 107.738 51.9643 107.283C51.5187 106.828 51.096 106.52 51.0202 106.594C50.9444 106.668 51.2441 107.097 51.6897 107.552Z" fill="#DCF9F6"/>
<path d="M59.9521 98.4788C81.1768 98.4788 98.3829 81.2728 98.3829 60.048C98.3829 38.8233 81.1768 21.6173 59.9521 21.6173C38.7274 21.6173 21.5214 38.8233 21.5214 60.048C21.5214 81.2728 38.7274 98.4788 59.9521 98.4788Z" fill="#DCF9F6"/>
<path d="M92.618 60.048C92.618 81.1849 81.0888 98.4788 59.9519 98.4788C38.815 98.4788 21.5211 81.1849 21.5211 60.048C21.5211 38.9111 38.815 21.6173 59.9519 21.6173C81.0888 21.6173 92.618 38.9111 92.618 60.048Z" fill="#95BFB9"/>
<path d="M33.2427 41.9856C34.5162 41.9856 35.5486 40.9532 35.5486 39.6798C35.5486 38.4063 34.5162 37.3739 33.2427 37.3739C31.9692 37.3739 30.9369 38.4063 30.9369 39.6798C30.9369 40.9532 31.9692 41.9856 33.2427 41.9856Z" fill="#78A8A0"/>
<path d="M29.976 48.711C30.1882 48.711 30.3603 48.5389 30.3603 48.3267C30.3603 48.1144 30.1882 47.9424 29.976 47.9424C29.7637 47.9424 29.5917 48.1144 29.5917 48.3267C29.5917 48.5389 29.7637 48.711 29.976 48.711Z" fill="#78A8A0"/>
<path d="M45.5405 60.4323C49.467 60.4323 52.6502 57.2492 52.6502 53.3226C52.6502 49.3961 49.467 46.213 45.5405 46.213C41.6139 46.213 38.4308 49.3961 38.4308 53.3226C38.4308 57.2492 41.6139 60.4323 45.5405 60.4323Z" fill="#78A8A0"/>
<path d="M48.615 39.6797C49.6763 39.6797 50.5366 38.8194 50.5366 37.7581C50.5366 36.6969 49.6763 35.8366 48.615 35.8366C47.5538 35.8366 46.6935 36.6969 46.6935 37.7581C46.6935 38.8194 47.5538 39.6797 48.615 39.6797Z" fill="#78A8A0"/>
<path d="M61.8736 37.3739C62.1919 37.3739 62.45 37.1158 62.45 36.7974C62.45 36.479 62.1919 36.2209 61.8736 36.2209C61.5552 36.2209 61.2971 36.479 61.2971 36.7974C61.2971 37.1158 61.5552 37.3739 61.8736 37.3739Z" fill="#78A8A0"/>
<path d="M66.8695 30.8407C67.1879 30.8407 67.446 30.5826 67.446 30.2642C67.446 29.9459 67.1879 29.6878 66.8695 29.6878C66.5512 29.6878 66.2931 29.9459 66.2931 30.2642C66.2931 30.5826 66.5512 30.8407 66.8695 30.8407Z" fill="#78A8A0"/>
<path d="M48.4229 31.6093C48.9535 31.6093 49.3837 31.1792 49.3837 30.6485C49.3837 30.1179 48.9535 29.6878 48.4229 29.6878C47.8923 29.6878 47.4622 30.1179 47.4622 30.6485C47.4622 31.1792 47.8923 31.6093 48.4229 31.6093Z" fill="#78A8A0"/>
<path d="M56.1089 27.7662C56.3212 27.7662 56.4932 27.5941 56.4932 27.3819C56.4932 27.1696 56.3212 26.9976 56.1089 26.9976C55.8967 26.9976 55.7246 27.1696 55.7246 27.3819C55.7246 27.5941 55.8967 27.7662 56.1089 27.7662Z" fill="#78A8A0"/>
<path d="M64.948 51.0168C65.797 51.0168 66.4852 50.3286 66.4852 49.4796C66.4852 48.6306 65.797 47.9424 64.948 47.9424C64.099 47.9424 63.4108 48.6306 63.4108 49.4796C63.4108 50.3286 64.099 51.0168 64.948 51.0168Z" fill="#78A8A0"/>
<path d="M76.4772 49.4796C77.0079 49.4796 77.438 49.0494 77.438 48.5188C77.438 47.9882 77.0079 47.558 76.4772 47.558C75.9466 47.558 75.5165 47.9882 75.5165 48.5188C75.5165 49.0494 75.9466 49.4796 76.4772 49.4796Z" fill="#78A8A0"/>
<path d="M78.9752 39.1033C79.8242 39.1033 80.5125 38.415 80.5125 37.5661C80.5125 36.7171 79.8242 36.0288 78.9752 36.0288C78.1262 36.0288 77.438 36.7171 77.438 37.5661C77.438 38.415 78.1262 39.1033 78.9752 39.1033Z" fill="#78A8A0"/>
<path d="M72.2498 72.7301C74.5846 72.7301 76.4772 70.8375 76.4772 68.5027C76.4772 66.168 74.5846 64.2754 72.2498 64.2754C69.9151 64.2754 68.0225 66.168 68.0225 68.5027C68.0225 70.8375 69.9151 72.7301 72.2498 72.7301Z" fill="#78A8A0"/>
<path d="M37.4701 72.3459C38.2129 72.3459 38.8152 71.7437 38.8152 71.0008C38.8152 70.2579 38.2129 69.6557 37.4701 69.6557C36.7272 69.6557 36.125 70.2579 36.125 71.0008C36.125 71.7437 36.7272 72.3459 37.4701 72.3459Z" fill="#78A8A0"/>
<path d="M51.3051 65.8126C51.6235 65.8126 51.8816 65.5545 51.8816 65.2361C51.8816 64.9178 51.6235 64.6597 51.3051 64.6597C50.9867 64.6597 50.7286 64.9178 50.7286 65.2361C50.7286 65.5545 50.9867 65.8126 51.3051 65.8126Z" fill="#78A8A0"/>
<path d="M58.0304 81.9536C59.3039 81.9536 60.3363 80.9212 60.3363 79.6477C60.3363 78.3742 59.3039 77.3419 58.0304 77.3419C56.757 77.3419 55.7246 78.3742 55.7246 79.6477C55.7246 80.9212 56.757 81.9536 58.0304 81.9536Z" fill="#78A8A0"/>
<path d="M29.9761 62.7382C30.8251 62.7382 31.5133 62.0499 31.5133 61.2009C31.5133 60.352 30.8251 59.6637 29.9761 59.6637C29.1271 59.6637 28.4388 60.352 28.4388 61.2009C28.4388 62.0499 29.1271 62.7382 29.9761 62.7382Z" fill="#78A8A0"/>
<path d="M64.1795 60.6245C64.3917 60.6245 64.5638 60.4525 64.5638 60.2402C64.5638 60.028 64.3917 59.8559 64.1795 59.8559C63.9672 59.8559 63.7952 60.028 63.7952 60.2402C63.7952 60.4525 63.9672 60.6245 64.1795 60.6245Z" fill="#78A8A0"/>
<path d="M82.6262 61.9696C83.1568 61.9696 83.5869 61.5394 83.5869 61.0088C83.5869 60.4782 83.1568 60.048 82.6262 60.048C82.0956 60.048 81.6654 60.4782 81.6654 61.0088C81.6654 61.5394 82.0956 61.9696 82.6262 61.9696Z" fill="#78A8A0"/>
<path d="M41.8897 83.8751C43.1632 83.8751 44.1956 82.8427 44.1956 81.5693C44.1956 80.2958 43.1632 79.2634 41.8897 79.2634C40.6162 79.2634 39.5839 80.2958 39.5839 81.5693C39.5839 82.8427 40.6162 83.8751 41.8897 83.8751Z" fill="#78A8A0"/>
<path d="M46.5013 74.0753C46.9258 74.0753 47.2699 73.7311 47.2699 73.3067C47.2699 72.8822 46.9258 72.538 46.5013 72.538C46.0768 72.538 45.7327 72.8822 45.7327 73.3067C45.7327 73.7311 46.0768 74.0753 46.5013 74.0753Z" fill="#78A8A0"/>
<path d="M70.3284 83.1064C70.7529 83.1064 71.097 82.7623 71.097 82.3378C71.097 81.9133 70.7529 81.5692 70.3284 81.5692C69.9039 81.5692 69.5598 81.9133 69.5598 82.3378C69.5598 82.7623 69.9039 83.1064 70.3284 83.1064Z" fill="#78A8A0"/>
<path d="M58.0304 89.2554C58.3488 89.2554 58.6069 88.9973 58.6069 88.6789C58.6069 88.3605 58.3488 88.1024 58.0304 88.1024C57.7121 88.1024 57.454 88.3605 57.454 88.6789C57.454 88.9973 57.7121 89.2554 58.0304 89.2554Z" fill="#78A8A0"/>
<path d="M48.4228 88.1024C48.635 88.1024 48.8071 87.9304 48.8071 87.7181C48.8071 87.5059 48.635 87.3338 48.4228 87.3338C48.2105 87.3338 48.0385 87.5059 48.0385 87.7181C48.0385 87.9304 48.2105 88.1024 48.4228 88.1024Z" fill="#78A8A0"/>
<path d="M79.936 80.4163C80.785 80.4163 81.4733 79.7281 81.4733 78.8791C81.4733 78.0301 80.785 77.3419 79.936 77.3419C79.087 77.3419 78.3988 78.0301 78.3988 78.8791C78.3988 79.7281 79.087 80.4163 79.936 80.4163Z" fill="#78A8A0"/>
<path d="M68.2146 91.1769C68.7452 91.1769 69.1753 90.7467 69.1753 90.2161C69.1753 89.6855 68.7452 89.2553 68.2146 89.2553C67.6839 89.2553 67.2538 89.6855 67.2538 90.2161C67.2538 90.7467 67.6839 91.1769 68.2146 91.1769Z" fill="#78A8A0"/>
<path d="M58.9913 70.2322C59.4158 70.2322 59.7599 69.8881 59.7599 69.4636C59.7599 69.0391 59.4158 68.695 58.9913 68.695C58.5668 68.695 58.2227 69.0391 58.2227 69.4636C58.2227 69.8881 58.5668 70.2322 58.9913 70.2322Z" fill="#78A8A0"/>
<path d="M84.932 73.691C85.781 73.691 86.4692 73.0027 86.4692 72.1537C86.4692 71.3047 85.781 70.6165 84.932 70.6165C84.083 70.6165 83.3948 71.3047 83.3948 72.1537C83.3948 73.0027 84.083 73.691 84.932 73.691Z" fill="#78A8A0"/>
<path d="M32.282 79.0713C33.0248 79.0713 33.627 78.4691 33.627 77.7262C33.627 76.9833 33.0248 76.3811 32.282 76.3811C31.5391 76.3811 30.9369 76.9833 30.9369 77.7262C30.9369 78.4691 31.5391 79.0713 32.282 79.0713Z" fill="#78A8A0"/>
<path d="M74.3635 59.6637C75.3187 59.6637 76.0929 58.8895 76.0929 57.9343C76.0929 56.9792 75.3187 56.205 74.3635 56.205C73.4084 56.205 72.6342 56.9792 72.6342 57.9343C72.6342 58.8895 73.4084 59.6637 74.3635 59.6637Z" fill="#78A8A0"/>
</g>
<defs>
<clipPath id="clip0">
<rect width="120" height="120" fill="white"/>
</clipPath>
</defs>
</svg>
