<svg width="50" height="50" viewBox="0 0 50 50" fill="none" xmlns="http://www.w3.org/2000/svg">
<g clip-path="url(#clip0)">
<path d="M24.9999 50.0008C38.807 50.0008 49.9998 38.808 49.9998 25.0009C49.9998 11.1938 38.807 0.00100708 24.9999 0.00100708C11.1928 0.00100708 0 11.1938 0 25.0009C0 38.808 11.1928 50.0008 24.9999 50.0008Z" fill="#F4E3C3"/>
<path d="M9 29V18C9 16.3432 10.3432 15 12 15H38C39.6568 15 41 16.3432 41 18V29C41 37.8365 33.8366 45 25 45C16.1634 45 9 37.8365 9 29Z" fill="#DFDFE1"/>
<path d="M38 15H25V45C33.8366 45 41 37.8365 41 29V18C41 16.3432 39.6568 15 38 15Z" fill="#CFCDD2"/>
<path d="M35.6666 24.3333C32.7211 24.3333 30.3333 21.9456 30.3333 19C30.3333 21.9456 27.9454 24.3333 25 24.3333C22.0545 24.3333 19.6666 21.9456 19.6666 19C19.6666 21.9456 17.2788 24.3333 14.3333 24.3333C11.3878 24.3333 9 21.9456 9 19V29C9 37.8365 16.1634 45 25 45C33.8366 45 41 37.8365 41 29V19C41 21.9456 38.6121 24.3333 35.6666 24.3333Z" fill="#FF4F19"/>
<path d="M35.6666 24.3333C32.7211 24.3333 30.3333 21.9456 30.3333 19C30.3333 21.9456 27.9454 24.3333 25 24.3333V45C33.8366 45 41 37.8365 41 29V19C41 21.9456 38.6121 24.3333 35.6666 24.3333Z" fill="#FC0023"/>
<path d="M26.5 30H23.5V36H26.5V30Z" fill="#FF9800"/>
<path d="M41 19C41 21.9456 38.6121 24.3333 35.6666 24.3333C32.7211 24.3333 30.3333 21.9456 30.3333 19C30.3333 21.9456 27.9454 24.3333 25 24.3333C22.0545 24.3333 19.6666 21.9456 19.6666 19C19.6666 21.9456 17.2788 24.3333 14.3333 24.3333C11.3878 24.3333 9 21.9456 9 19V29C9 31.9688 9.8095 34.748 11.2185 37.131C14.2769 32.8166 19.309 30 25 30C30.691 30 35.7231 32.8166 38.7815 37.1311C40.1904 34.7481 41 31.9688 41 29V19Z" fill="#56545A"/>
<path d="M35.6666 24.3333C32.7211 24.3333 30.3333 21.9456 30.3333 19C30.3333 21.9456 27.9454 24.3333 24.9999 24.3333H24.9998V30H24.9999C30.6909 30 35.7231 32.8166 38.7814 37.1311C40.1903 34.7481 40.9999 31.9688 40.9999 29V19C40.9999 21.9456 38.6121 24.3333 35.6666 24.3333Z" fill="#272729"/>
</g>
<defs>
<clipPath id="clip0">
<rect width="50" height="50" fill="white"/>
</clipPath>
</defs>
</svg>
