<svg width="120" height="120" viewBox="0 0 120 120" fill="none" xmlns="http://www.w3.org/2000/svg">
<path d="M60 120C93.1371 120 120 93.1371 120 60C120 26.8629 93.1371 0 60 0C26.8629 0 0 26.8629 0 60C0 93.1371 26.8629 120 60 120Z" fill="#8282DC"/>
<g opacity="0.4">
<path opacity="0.4" d="M60 106.875C85.8883 106.875 106.875 85.8883 106.875 60C106.875 34.1117 85.8883 13.125 60 13.125C34.1117 13.125 13.125 34.1117 13.125 60C13.125 85.8883 34.1117 106.875 60 106.875Z" fill="#9FA5EB"/>
</g>
<g opacity="0.65">
<path opacity="0.65" d="M60 95.625C79.6751 95.625 95.625 79.6751 95.625 60C95.625 40.3249 79.6751 24.375 60 24.375C40.3249 24.375 24.375 40.3249 24.375 60C24.375 79.6751 40.3249 95.625 60 95.625Z" fill="#9FA5EB"/>
</g>
<path d="M7.03381 88.125C17.1157 107.078 37.0343 120 60 120C82.9657 120 102.884 107.078 112.966 88.125H7.03381Z" fill="#6464C8"/>
<g opacity="0.2">
<path opacity="0.2" d="M15.6787 88.125C24.9935 102.773 41.3557 112.5 60 112.5C78.6443 112.5 95.0064 102.773 104.321 88.125H15.6787Z" fill="#9FA5EB"/>
</g>
<g opacity="0.2">
<path opacity="0.2" d="M35.6723 95.625H48.7499V90H30.5927C32.0837 92.051 33.7944 93.9288 35.6723 95.625Z" fill="#9FA5EB"/>
</g>
<path d="M8.04676 90H111.953C113.988 86.4832 115.676 82.7429 116.971 78.8211C112.097 78.8276 102.183 76.4984 93.7497 73.1251C84.3747 69.3751 73.1247 61.8751 39.3747 69.3751C27.9276 71.919 14.9997 75 1.41113 72.9261C2.74941 79.0172 5.01301 84.7575 8.04676 90Z" fill="#5F5FA5"/>
<path d="M31.875 97.5H106.822C110.14 93.3629 112.922 88.7804 115.061 83.8507C54.9982 77.9576 31.875 97.5 31.875 97.5Z" fill="#5A5A82"/>
<path d="M77.768 75.9375H60.1031V92.243H77.768V75.9375Z" fill="#5F5FA5"/>
<path d="M98.1868 76.8234H82.8892V92.2422H98.1868V76.8234Z" fill="#5F5FA5"/>
<path d="M95 72.9696H86.0771L82.5078 76.8243H98.5693L95 72.9696Z" fill="#5A5A82"/>
<path d="M85.1578 82.1548L80.3396 76.3725H77.4485H74.5575L69.739 82.1548H70.7028V92.2432H84.1943V82.1548H85.1578Z" fill="#5A5A82"/>
<path d="M88.3291 84.6094H86.1609V88.4641H88.3291V84.6094Z" fill="white"/>
<path d="M91.6221 84.6094H89.4539V88.4641H91.6221V84.6094Z" fill="#9A9FE8"/>
<path d="M94.9149 84.6094H92.7467V88.4641H94.9149V84.6094Z" fill="#9A9FE8"/>
<path d="M88.3291 79.2328H86.1609V82.1238H88.3291V79.2328Z" fill="#9A9FE8"/>
<path d="M91.6222 79.2328H89.454V82.1238H91.6222V79.2328Z" fill="white"/>
<path d="M94.9151 79.2328H92.7469V82.1238H94.9151V79.2328Z" fill="#9A9FE8"/>
<path d="M58.2931 75.9511H48.9017L45.1451 79.8056H45.9481V92.2432H61.2467V79.8056H62.0497L58.2931 75.9511Z" fill="#5A5A82"/>
<path d="M51.3893 86.0696H49.2211V88.9458H51.3893V86.0696Z" fill="white"/>
<path d="M54.6822 86.0696H52.514V88.9458H54.6822V86.0696Z" fill="#9A9FE8"/>
<path d="M57.9728 86.0696H55.8046V88.9458H57.9728V86.0696Z" fill="#9A9FE8"/>
<path d="M51.3893 81.2508H49.2211V84.1418H51.3893V81.2508Z" fill="#9A9FE8"/>
<path d="M54.6822 81.2508H52.514V84.1418H54.6822V81.2508Z" fill="#9A9FE8"/>
<path d="M57.9728 81.2508H55.8046V84.1418H57.9728V81.2508Z" fill="white"/>
<path d="M76.744 70.8963V72.0059H61.1262V70.8963H60.1022V75.9375H77.768V70.8963H76.744Z" fill="#5A5A82"/>
<path d="M65.4822 84.3985H63.314V88.2532H65.4822V84.3985Z" fill="#9A9FE8"/>
<path d="M69.3774 84.3984H67.2092V88.2531H69.3774V84.3984Z" fill="white"/>
<path d="M65.4822 79.0219H63.314V81.9129H65.4822V79.0219Z" fill="white"/>
<path d="M69.3775 79.0219H67.2094V81.9129H69.3775V79.0219Z" fill="#9A9FE8"/>
<path d="M76.4848 84.6094H73.5938V88.4641H76.4848V84.6094Z" fill="#9A9FE8"/>
<path d="M81.3035 84.6094H78.4125V88.4641H81.3035V84.6094Z" fill="white"/>
<path d="M37.5001 85.2323L35.2232 82.5H33.8567H32.4906L30.2136 85.2323H30.669V90H37.0447V85.2323H37.5001Z" fill="#5A5A82"/>
<path d="M33.4006 86.393H32.0344V88.2145H33.4006V86.393Z" fill="white"/>
<path d="M35.6788 86.393H34.3126V88.2145H35.6788V86.393Z" fill="#9A9FE8"/>
<path d="M31.6315 81.818H21.8883V89.9998H31.6315V81.818Z" fill="#5F5FA5"/>
<path d="M29.6019 79.4789H23.919L21.646 81.934H31.8751L29.6019 79.4789Z" fill="#5A5A82"/>
<path d="M23.3337 83.5748L20.2651 79.8923H18.4238H16.5826L13.5137 83.5748H14.1275V90H22.7199V83.5748H23.3337Z" fill="#5A5A82"/>
<path d="M17.8093 85.1391H15.968V87.5941H17.8093V85.1391Z" fill="#9A9FE8"/>
<path d="M20.8796 85.1391H19.0383V87.5941H20.8796V85.1391Z" fill="white"/>
<path d="M25.3527 85.971H23.9718V88.631H25.3527V85.971Z" fill="#9A9FE8"/>
<path d="M27.4504 85.971H26.0695V88.631H27.4504V85.971Z" fill="#9A9FE8"/>
<path d="M29.5482 85.971H28.1672V88.631H29.5482V85.971Z" fill="white"/>
<path d="M25.3527 83.1727H23.9718V85.0139H25.3527V83.1727Z" fill="white"/>
<path d="M27.4505 83.1727H26.0696V85.0139H27.4505V83.1727Z" fill="#9A9FE8"/>
<path d="M29.5482 83.1727H28.1672V85.0139H29.5482V83.1727Z" fill="#9A9FE8"/>
<path d="M62.5781 18.75C63.2253 18.75 63.75 18.2253 63.75 17.5781C63.75 16.9309 63.2253 16.4062 62.5781 16.4062C61.9309 16.4062 61.4062 16.9309 61.4062 17.5781C61.4062 18.2253 61.9309 18.75 62.5781 18.75Z" fill="white"/>
<path d="M66.7969 30.4688C67.4441 30.4688 67.9688 29.9441 67.9688 29.2969C67.9688 28.6497 67.4441 28.125 66.7969 28.125C66.1497 28.125 65.625 28.6497 65.625 29.2969C65.625 29.9441 66.1497 30.4688 66.7969 30.4688Z" fill="white"/>
<path d="M27.4219 35.625C28.0691 35.625 28.5938 35.1003 28.5938 34.4531C28.5938 33.8059 28.0691 33.2812 27.4219 33.2812C26.7747 33.2812 26.25 33.8059 26.25 34.4531C26.25 35.1003 26.7747 35.625 27.4219 35.625Z" fill="white"/>
<path d="M45.7031 11.7188C46.3503 11.7188 46.875 11.1941 46.875 10.5469C46.875 9.89967 46.3503 9.375 45.7031 9.375C45.0559 9.375 44.5312 9.89967 44.5312 10.5469C44.5312 11.1941 45.0559 11.7188 45.7031 11.7188Z" fill="white"/>
<g opacity="0.7">
<path opacity="0.7" d="M55.0781 22.5C55.7253 22.5 56.25 21.9753 56.25 21.3281C56.25 20.6809 55.7253 20.1562 55.0781 20.1562C54.4309 20.1562 53.9062 20.6809 53.9062 21.3281C53.9062 21.9753 54.4309 22.5 55.0781 22.5Z" fill="#9FA5EB"/>
</g>
<g opacity="0.7">
<path opacity="0.7" d="M58.8281 9.375C59.4753 9.375 60 8.85033 60 8.20312C60 7.55592 59.4753 7.03125 58.8281 7.03125C58.1809 7.03125 57.6562 7.55592 57.6562 8.20312C57.6562 8.85033 58.1809 9.375 58.8281 9.375Z" fill="#9FA5EB"/>
</g>
<g opacity="0.7">
<path opacity="0.7" d="M85.0781 15.4688C85.7253 15.4688 86.25 14.9441 86.25 14.2969C86.25 13.6497 85.7253 13.125 85.0781 13.125C84.4309 13.125 83.9062 13.6497 83.9062 14.2969C83.9062 14.9441 84.4309 15.4688 85.0781 15.4688Z" fill="#9FA5EB"/>
</g>
<g opacity="0.7">
<path opacity="0.7" d="M33.0469 18.75C33.6941 18.75 34.2188 18.2253 34.2188 17.5781C34.2188 16.9309 33.6941 16.4062 33.0469 16.4062C32.3997 16.4062 31.875 16.9309 31.875 17.5781C31.875 18.2253 32.3997 18.75 33.0469 18.75Z" fill="#9FA5EB"/>
</g>
<g opacity="0.7">
<path opacity="0.7" d="M46.1719 22.5C46.8191 22.5 47.3438 21.9753 47.3438 21.3281C47.3438 20.6809 46.8191 20.1562 46.1719 20.1562C45.5247 20.1562 45 20.6809 45 21.3281C45 21.9753 45.5247 22.5 46.1719 22.5Z" fill="#9FA5EB"/>
</g>
<g opacity="0.7">
<path opacity="0.7" d="M17.5781 28.125C18.2253 28.125 18.75 27.6003 18.75 26.9531C18.75 26.3059 18.2253 25.7812 17.5781 25.7812C16.9309 25.7812 16.4062 26.3059 16.4062 26.9531C16.4062 27.6003 16.9309 28.125 17.5781 28.125Z" fill="#9FA5EB"/>
</g>
<path d="M31.875 97.5C31.875 97.5 58.7967 104.222 101.467 103.341C103.226 101.658 104.89 99.8782 106.434 97.9938C106.534 97.8345 106.622 97.6805 106.767 97.5H31.875V97.5Z" fill="#6464C8"/>
</svg>
