<svg width="120" height="120" viewBox="0 0 120 120" fill="none" xmlns="http://www.w3.org/2000/svg">
<g clip-path="url(#clip0)">
<path d="M120 0H0V59.7748H120V0Z" fill="#FBB03B"/>
<path d="M30 60C30 43.4313 43.4313 30 60 30C76.5687 30 90 43.4313 90 60" fill="#F47B50"/>
<path d="M60 30C57.4052 30 54.9012 30.364 52.5 30.9832C65.4321 34.3184 75 46.0261 75 60H90C90 43.4313 76.5687 30 60 30Z" fill="#F15A24"/>
<path d="M120 60.098H0V120H120V60.098Z" fill="#33BAB1"/>
<path d="M120 60.1371H0V71.1722H120V60.1371Z" fill="#00A99D"/>
<path d="M120 60.098H0V65.6257H120V60.098Z" fill="#007F76"/>
<path d="M60 69.551H13.2244V73.2244H60V69.551Z" fill="white"/>
<path d="M71.2652 69.551H63.6733V73.2244H71.2652V69.551Z" fill="white"/>
<path d="M99.4286 80.5713H58.0408V84.2447H99.4286V80.5713Z" fill="white"/>
<path d="M52.4081 80.5713H33.7959V84.2447H52.4081V80.5713Z" fill="white"/>
<path d="M105.061 69.551H82.5306V73.2244H105.061V69.551Z" fill="white"/>
<path d="M78.6123 91.8369H46.7755V95.5102H78.6123V91.8369Z" fill="white"/>
<path d="M95.7551 101.388H63.6733V105.061H95.7551V101.388Z" fill="white"/>
<path d="M67.5919 110.694H48.7347V114.367H67.5919V110.694Z" fill="white"/>
<path d="M89.8776 91.8369H82.5306V95.5102H89.8776V91.8369Z" fill="white"/>
<path d="M82.5304 110.694H71.2651V114.367H82.5304V110.694Z" fill="white"/>
<path d="M13.2244 80.5713H9.55103V84.2447H13.2244V80.5713Z" fill="white"/>
<path d="M28.1631 97.7143H18.6121V101.388H28.1631V97.7143Z" fill="white"/>
<path d="M20.5712 110.694H11.2651V114.367H20.5712V110.694Z" fill="white"/>
<path d="M114.367 88.1632H108.735V91.8366H114.367V88.1632Z" fill="white"/>
<path d="M116.327 73.2244H108.735V76.8978H116.327V73.2244Z" fill="white"/>
<path d="M101.387 95.7551H97.4691V99.4285H101.387V95.7551Z" fill="white"/>
<path d="M103.347 116.327H97.4691V120H103.347V116.327Z" fill="white"/>
<path d="M116.327 110.694H103.347V114.367H116.327V110.694Z" fill="white"/>
<path d="M45.061 103.102H35.7549V106.775H45.061V103.102Z" fill="white"/>
<path d="M24.2448 88.1632H7.5918V91.8366H24.2448V88.1632Z" fill="white"/>
<path d="M13.125 32.5974L8.07629 27.5489L10.6736 24.9511L13.125 27.4027L16.5138 24.0138L19.1114 26.6114L13.125 32.5974Z" fill="black"/>
<path d="M26.5214 37.6517L20.0442 35.4926L21.2058 32.0074L25.9786 33.5986L30.8561 30.3469L32.8936 33.4034L26.5214 37.6517Z" fill="black"/>
<path d="M91.875 24.5534L87.3035 22.2678L88.9464 18.9823L91.875 20.4467L94.8035 18.9823L96.4464 22.2678L91.875 24.5534Z" fill="black"/>
<path d="M105.234 30.4887L98.3561 25.9034L100.394 22.8469L104.766 25.7616L107.451 23.0763L110.049 25.6739L105.234 30.4887Z" fill="black"/>
<path d="M105 21.3476L99.951 16.2987L102.549 13.7013L105 16.1524L107.451 13.7013L110.049 16.2987L105 21.3476Z" fill="black"/>
</g>
<defs>
<clipPath id="clip0">
<rect width="120" height="120" rx="60" fill="white"/>
</clipPath>
</defs>
</svg>
