<svg width="120" height="120" viewBox="0 0 120 120" fill="none" xmlns="http://www.w3.org/2000/svg">
<g clip-path="url(#clip0)">
<path d="M59.9974 119.993C93.1325 119.993 119.994 93.1315 119.994 59.9964C119.994 26.8613 93.1325 0 59.9974 0C26.8623 0 0.000976562 26.8613 0.000976562 59.9964C0.000976562 93.1315 26.8623 119.993 59.9974 119.993Z" fill="#FF7900"/>
<path d="M102.423 17.5727C125.857 41.0008 125.857 78.9902 102.423 102.422C78.9933 125.86 41.0058 125.86 17.5756 102.42" fill="#FF5500"/>
<path d="M59.9996 104.158C84.3874 104.158 104.158 84.3881 104.158 60.0002C104.158 35.6124 84.3874 15.8421 59.9996 15.8421C35.6117 15.8421 15.8414 35.6124 15.8414 60.0002C15.8414 84.3881 35.6117 104.158 59.9996 104.158Z" fill="#FF9700"/>
<path d="M60.0015 15.84C84.3915 15.8381 104.16 35.6081 104.16 60C104.163 84.3901 84.3915 104.16 60.0015 104.158" fill="#FF7900"/>
<path d="M60.0014 89.3891C76.2324 89.3891 89.3902 76.2313 89.3902 60.0003C89.3902 43.7692 76.2324 30.6114 60.0014 30.6114C43.7704 30.6114 30.6125 43.7692 30.6125 60.0003C30.6125 76.2313 43.7704 89.3891 60.0014 89.3891Z" fill="#FFAA00"/>
<path d="M39.2188 39.2196C50.6957 27.7426 69.3031 27.7426 80.7801 39.2196C92.2571 50.6985 92.2571 69.304 80.7801 80.781" fill="#FF9700"/>
</g>
<defs>
<clipPath id="clip0">
<rect width="120" height="120" fill="white"/>
</clipPath>
</defs>
</svg>
