<svg width="120" height="120" viewBox="0 0 120 120" fill="none" xmlns="http://www.w3.org/2000/svg">
<g clip-path="url(#clip0)">
<path d="M120 0H0V78.7491H120V0Z" fill="#A9DDF3"/>
<path d="M101.25 78.75C101.25 55.9683 82.7817 37.5 60 37.5C37.2183 37.5 18.75 55.9683 18.75 78.75" fill="#FEE8C7"/>
<path d="M86.25 78.75C86.25 64.2525 74.4975 52.5 60 52.5C45.5025 52.5 33.75 64.2525 33.75 78.75" fill="#FDD9A1"/>
<path d="M73.125 78.75C73.125 71.5013 67.2488 65.625 60 65.625C52.7513 65.625 46.875 71.5013 46.875 78.75" fill="#FBB03B"/>
<path d="M120 78.7146H0V120H120V78.7146Z" fill="#29ABE2"/>
<path d="M110.906 79.5468C110.906 96.0379 103.064 110.642 90.9061 120H29.0927C16.9354 110.642 9.09467 96.0379 9.09467 79.5473" fill="#7FCDEE"/>
<path d="M92.3947 79.5471C92.3947 97.4381 77.8911 111.942 60.0001 111.942C42.1091 111.942 27.6055 97.4381 27.6055 79.5471" fill="#A9DDF3"/>
<path d="M44.846 84.5175H37.4539V88.2136H44.846V84.5175Z" fill="white"/>
<path d="M71.2112 84.5175H48.7883V88.2136H71.2112V84.5175Z" fill="white"/>
<path d="M82.5461 84.5175H74.9076V88.2136H82.5461V84.5175Z" fill="white"/>
<path d="M46.8173 93.881H32.0329V97.5771H46.8173V93.881Z" fill="white"/>
<path d="M87.967 93.881H73.1826V97.5771H87.967V93.881Z" fill="white"/>
<path d="M67.5153 93.881H52.4846V97.5771H67.5153V93.881Z" fill="white"/>
<path d="M48.7884 104.969H22.6695V108.665H48.7884V104.969Z" fill="white"/>
<path d="M97.3307 104.969H71.2117V108.665H97.3307V104.969Z" fill="white"/>
<path d="M63.8191 104.969H56.1805V108.665H63.8191V104.969Z" fill="white"/>
<path d="M32.033 116.304H0V120H32.033V116.304Z" fill="white"/>
<path d="M120 116.304H87.9673V120H120V116.304Z" fill="white"/>
<path d="M61.8481 116.304H58.152V120H61.8481V116.304Z" fill="white"/>
<path d="M16.8749 38.2385L11.8181 33.1818L14.4318 30.5681L16.8749 33.0114L19.3183 30.5681L21.9316 33.1818L16.8749 38.2385Z" fill="black"/>
<path d="M39.375 28.8635L34.3184 23.8069L36.9316 21.1931L39.375 23.6365L41.8181 21.1931L44.4319 23.8069L39.375 28.8635Z" fill="black"/>
<path d="M105 66.3635L99.9434 61.3066L102.557 58.6934L105 61.1365L107.443 58.6934L110.057 61.3066L105 66.3635Z" fill="black"/>
</g>
<defs>
<clipPath id="clip0">
<rect width="120" height="120" rx="60" fill="white"/>
</clipPath>
</defs>
</svg>
