<svg width="68" height="68" viewBox="0 0 68 68" fill="none" xmlns="http://www.w3.org/2000/svg">
<circle cx="34" cy="34" r="34" fill="white" fill-opacity="0.1"/>
<path d="M54 50C54 53.6007 51.9508 57.0527 48.2509 59.6838C44.5552 62.3118 39.3464 64 33.5 64C27.6536 64 22.4448 62.3118 18.7491 59.6838C15.0492 57.0527 13 53.6007 13 50C13 46.3993 15.0492 42.9473 18.7491 40.3162C22.4448 37.6882 27.6536 36 33.5 36C39.3464 36 44.5552 37.6882 48.2509 40.3162C51.9508 42.9473 54 46.3993 54 50Z" stroke="white" stroke-opacity="0.3" stroke-width="4"/>
<circle cx="34" cy="21" r="11" fill="white" fill-opacity="0.25"/>
<path d="M39.5 30.5263C41.0033 29.6583 42.2799 28.4469 43.2253 26.991C44.1708 25.5352 44.7583 23.8762 44.9397 22.1498C45.1212 20.4234 44.8915 18.6786 44.2694 17.0579C43.6473 15.4373 42.6504 13.987 41.3604 12.8254" stroke="white" stroke-opacity="0.3" stroke-width="3"/>
<path d="M28.5 30.5263C26.9966 29.6584 25.7201 28.4469 24.7746 26.9911C23.8292 25.5352 23.2417 23.8763 23.0603 22.1499C22.8788 20.4235 23.1085 18.6786 23.7306 17.058C24.3527 15.4374 25.3495 13.987 26.6396 12.8255" stroke="white" stroke-opacity="0.3" stroke-width="3"/>
</svg>
