<svg width="82" height="82" viewBox="0 0 82 82" fill="none" xmlns="http://www.w3.org/2000/svg">
<rect width="82" height="82" rx="41" fill="url(#paint0_linear)"/>
<circle cx="41" cy="41" r="34" fill="#494949"/>
<path d="M61 57C61 60.6007 58.9508 64.0527 55.2509 66.6838C51.5552 69.3118 46.3464 71 40.5 71C34.6536 71 29.4448 69.3118 25.7491 66.6838C22.0492 64.0527 20 60.6007 20 57C20 53.3993 22.0492 49.9473 25.7491 47.3162C29.4448 44.6882 34.6536 43 40.5 43C46.3464 43 51.5552 44.6882 55.2509 47.3162C58.9508 49.9473 61 53.3993 61 57Z" stroke="white" stroke-width="4"/>
<circle cx="41" cy="28" r="11" fill="white" fill-opacity="0.95"/>
<path d="M46.5 37.5263C48.0033 36.6583 49.2799 35.4469 50.2253 33.991C51.1708 32.5352 51.7583 30.8762 51.9397 29.1498C52.1212 27.4234 51.8915 25.6786 51.2694 24.0579C50.6473 22.4373 49.6504 20.987 48.3604 19.8254" stroke="white" stroke-opacity="0.95" stroke-width="3"/>
<path d="M35.5 37.5263C33.9966 36.6584 32.7201 35.4469 31.7746 33.9911C30.8292 32.5352 30.2417 30.8763 30.0603 29.1499C29.8788 27.4235 30.1085 25.6786 30.7306 24.058C31.3527 22.4374 32.3495 20.987 33.6396 19.8255" stroke="white" stroke-opacity="0.95" stroke-width="3"/>
<defs>
<linearGradient id="paint0_linear" x1="41" y1="0" x2="41" y2="82" gradientUnits="userSpaceOnUse">
<stop stop-color="#FFBE55"/>
<stop offset="1" stop-color="#F15A24"/>
</linearGradient>
</defs>
</svg>
