<svg width="50" height="50" viewBox="0 0 50 50" fill="none" xmlns="http://www.w3.org/2000/svg">
<path d="M49.91 27.116C49.9685 26.4183 50 25.7128 50 25C50 11.1929 38.807 0 25 0C11.1929 0 0 11.1929 0 25C0 37.6386 9.379 48.0848 21.5563 49.7628L49.91 27.116Z" fill="#0D5D52"/>
<path d="M7.09241 35.2989L21.5563 49.7628C22.6822 49.918 23.8315 50 25 50C38.0943 50 48.8357 39.9325 49.91 27.116L34.2232 11.429L7.09241 35.2989Z" fill="#193D2F"/>
<path d="M25 7.60869L18.4782 20.6521L25 33.6956C32.2037 33.6956 38.0434 27.8559 38.0434 20.6521C38.0434 13.4484 32.2037 7.60869 25 7.60869Z" fill="#81982D"/>
<path d="M11.9565 20.6521C11.9565 27.8559 17.7962 33.6956 24.9999 33.6956V7.60869C17.7962 7.60869 11.9565 13.4484 11.9565 20.6521Z" fill="#A0AD2F"/>
<path d="M34.7825 35.7064C40.2153 35.7064 44.6194 31.3023 44.6194 25.8695C44.6194 20.4368 40.2153 16.0326 34.7825 16.0326C29.3498 16.0326 24.9456 20.4368 24.9456 25.8695C24.9456 31.3023 29.3498 35.7064 34.7825 35.7064Z" fill="#A0AD2F"/>
<path d="M15.2173 35.6521C20.6201 35.6521 24.9999 31.2723 24.9999 25.8695C24.9999 20.4667 20.6201 16.0869 15.2173 16.0869C9.81452 16.0869 5.43469 20.4667 5.43469 25.8695C5.43469 31.2723 9.81452 35.6521 15.2173 35.6521Z" fill="#BEC130"/>
<path d="M24.9999 10.8695L20.1086 20.6521L24.9999 30.4348C30.4026 30.4348 34.7825 26.055 34.7825 20.6521C34.7825 15.2493 30.4026 10.8695 24.9999 10.8695Z" fill="#BEC130"/>
<path d="M15.2174 20.6521C15.2174 26.055 19.5973 30.4348 25 30.4348V10.8695C19.5972 10.8695 15.2174 15.2493 15.2174 20.6521Z" fill="#DDD532"/>
<path d="M25 13.0435L21.1956 20.6521L25 28.2608C29.2022 28.2608 32.6087 24.8543 32.6087 20.6521C32.6087 16.45 29.2022 13.0435 25 13.0435Z" fill="#C9E5FF"/>
<path d="M17.3914 20.6521C17.3914 24.8543 20.7979 28.2608 25 28.2608V13.0435C20.7979 13.0435 17.3914 16.45 17.3914 20.6521Z" fill="white"/>
<path d="M25 15.2174L22.2826 20.6522L25 26.0869C28.0015 26.0869 30.4347 23.6536 30.4347 20.6522C30.4347 17.6507 28.0015 15.2174 25 15.2174Z" fill="#92CCFF"/>
<path d="M19.5652 20.6522C19.5652 23.6537 21.9985 26.0869 25 26.0869V15.2174C21.9984 15.2174 19.5652 17.6507 19.5652 20.6522Z" fill="#C9E5FF"/>
<path d="M25 17.3913L23.3695 20.6522L25 23.9131C26.8009 23.9131 28.2608 22.4532 28.2608 20.6523C28.2608 18.8513 26.8009 17.3913 25 17.3913Z" fill="#C9E5FF"/>
<path d="M21.7392 20.6521C21.7392 22.4531 23.1992 23.913 25 23.913V17.3912C23.1991 17.3913 21.7392 18.8512 21.7392 20.6521Z" fill="white"/>
<path d="M27.1739 18.4782L23.3695 26.0869L27.1739 33.6956C31.3761 33.6956 34.7826 30.2891 34.7826 26.0869C34.7826 21.8848 31.3761 18.4782 27.1739 18.4782Z" fill="#F72E12"/>
<path d="M19.5652 26.0869C19.5652 30.2891 22.9718 33.6956 27.1739 33.6956V18.4782C22.9718 18.4782 19.5652 21.8848 19.5652 26.0869Z" fill="#F8513A"/>
<path d="M27.1739 20.6521L24.4565 26.0869L27.1739 31.5217C30.1754 31.5217 32.6086 29.0884 32.6086 26.0869C32.6086 23.0854 30.1753 20.6521 27.1739 20.6521Z" fill="#FA7461"/>
<path d="M21.7392 26.0869C21.7392 29.0885 24.1725 31.5217 27.174 31.5217V20.6521C24.1724 20.6521 21.7392 23.0854 21.7392 26.0869Z" fill="#FB9789"/>
<path d="M34.7826 18.4782L30.9782 26.0869L34.7826 33.6956C38.9848 33.6956 42.3913 30.2891 42.3913 26.0869C42.3913 21.8848 38.9848 18.4782 34.7826 18.4782Z" fill="#F72E12"/>
<path d="M27.1739 26.0869C27.1739 30.2891 30.5804 33.6956 34.7826 33.6956V18.4782C30.5804 18.4782 27.1739 21.8848 27.1739 26.0869Z" fill="#F8513A"/>
<path d="M34.7826 20.6522L32.0652 26.0869L34.7826 31.5217C37.7842 31.5217 40.2174 29.0884 40.2174 26.0869C40.2174 23.0855 37.7841 20.6522 34.7826 20.6522Z" fill="#F8513A"/>
<path d="M29.3479 26.0869C29.3479 29.0885 31.7812 31.5217 34.7827 31.5217V20.6521C31.7811 20.6521 29.3479 23.0854 29.3479 26.0869Z" fill="#FA7461"/>
<path d="M25 26.0869L20.6521 32.2825L25 39.1305H33.6956C40.8695 39.1305 46.739 33.2609 46.739 26.087H25V26.0869Z" fill="#C9E5FF"/>
<path d="M11.9565 21.7392L9.78259 26.087L11.9565 30.4349C14.3577 30.4349 16.3044 28.4882 16.3044 26.087C16.3044 23.6857 14.3577 21.7392 11.9565 21.7392Z" fill="#F72E12"/>
<path d="M7.60864 26.0869C7.60864 28.4881 9.55522 30.4348 11.9565 30.4348V21.7392C9.55532 21.7392 7.60864 23.6857 7.60864 26.0869Z" fill="#F8513A"/>
<path d="M17.3913 23.9131L16.3044 26.087L17.3913 28.2609C18.592 28.2609 19.5652 27.2877 19.5652 26.087C19.5652 24.8863 18.592 23.9131 17.3913 23.9131Z" fill="#FFE376"/>
<path d="M15.2174 26.0869C15.2174 27.2876 16.1907 28.2608 17.3913 28.2608V23.9131C16.1907 23.9131 15.2174 24.8863 15.2174 26.0869Z" fill="#FFF3AD"/>
<path d="M24.9999 26.0869V39.1304H16.3043C9.1304 39.1304 3.26086 33.2608 3.26086 26.0869H24.9999Z" fill="white"/>
<path d="M25 28.2608H44.3467C43.337 33.2163 38.9446 36.9564 33.6957 36.9564H25L22.826 32.6086L25 28.2608Z" fill="#BEC130"/>
<path d="M25.0001 28.2608V36.9564H16.3045C11.0555 36.9564 6.66315 33.2162 5.65338 28.2608H25.0001Z" fill="#DDD532"/>
</svg>
