<svg width="50" height="50" viewBox="0 0 50 50" fill="none" xmlns="http://www.w3.org/2000/svg">
<g clip-path="url(#clip0)">
<path d="M24.9999 50.0008C38.807 50.0008 49.9998 38.808 49.9998 25.0009C49.9998 11.1938 38.807 0.000999451 24.9999 0.000999451C11.1928 0.000999451 0 11.1938 0 25.0009C0 38.808 11.1928 50.0008 24.9999 50.0008Z" fill="#F4E3C3"/>
<path d="M50 25C50 24.6741 49.9917 24.35 49.9795 24.0269L41.2887 15.3361L34.3156 13.3842L27.4693 15.9655L17.4604 16.8446L12.5914 17.0248L7.82849 23.2046L10.2681 33.7257L26.4966 49.9543C39.6068 49.1801 50 38.3046 50 25Z" fill="#FED8B2"/>
<path d="M9.04126 30.9852C5.62884 25.227 7.45473 21.3197 8.84682 19.5032C11.4315 16.1306 16.5858 14.5969 21.1026 15.8564C24.4235 16.7823 26.2662 15.7108 28.4001 14.4704C30.6964 13.1357 33.2988 11.6229 37.8038 13.089C39.9931 13.8015 41.5092 15.1232 42.3095 17.0175C44.2455 21.5991 41.2067 27.8841 41.0766 28.1494L39.5652 27.4078C39.5936 27.3496 42.396 21.5403 40.7573 17.6695C40.1466 16.2267 39.01 15.2522 37.2826 14.6901C33.4935 13.4569 31.4304 14.6563 29.2462 15.9262C27.0941 17.1771 24.655 18.5952 20.6505 17.4783C16.7686 16.3958 12.3667 17.6785 10.183 20.5274C8.22573 23.0815 8.33461 26.4907 10.4895 30.1273L9.04126 30.9852Z" fill="#2B9ED8"/>
<path d="M42.3094 17.0173C41.5091 15.1232 39.9931 13.8013 37.8037 13.0889C33.2985 11.6228 30.6962 13.1356 28.4001 14.4703C27.2384 15.1456 26.1626 15.7699 24.8879 16.0501V17.7564C26.6135 17.455 27.9797 16.6618 29.2462 15.9256C31.4305 14.6559 33.4934 13.4565 37.2825 14.6896C39.01 15.2517 40.1465 16.2263 40.7572 17.669C42.3959 21.54 39.5936 27.3491 39.5651 27.4073L41.0766 28.1489C41.2067 27.884 44.2453 21.599 42.3094 17.0173Z" fill="#1A84AD"/>
<path d="M25.0001 30.2194C29.2779 30.2194 27.4764 34.5122 33.4538 35.7748C39.4311 37.0374 44.5544 29.5738 39.794 24.6636C35.0337 19.7533 28.8795 19.3576 25.0001 19.1081C21.1207 19.3576 14.9668 19.7535 10.2062 24.6637C5.44566 29.5738 10.569 37.0373 16.5465 35.7747C22.5239 34.5121 20.7224 30.2194 25.0001 30.2194Z" fill="#324A5E"/>
<path d="M39.7938 24.6637C35.0334 19.7534 28.8794 19.3576 24.9999 19.1082C24.9632 19.1105 24.9248 19.1131 24.8876 19.1154V30.2211C24.9248 30.2204 24.9616 30.2194 24.9997 30.2194C29.2775 30.2194 27.476 34.5123 33.4534 35.7749C39.431 37.0375 44.5543 29.5739 39.7938 24.6637Z" fill="#2B3B4E"/>
</g>
<defs>
<clipPath id="clip0">
<rect width="50" height="50" fill="white"/>
</clipPath>
</defs>
</svg>
