<svg width="50" height="50" viewBox="0 0 50 50" fill="none" xmlns="http://www.w3.org/2000/svg">
<path d="M25 0C38.8076 0 50 11.1924 50 25C50 38.8076 38.8076 50 25 50L18.4783 25L25 0Z" fill="#354A67"/>
<path d="M25 50C11.1924 50 0 38.8076 0 25C0 11.1924 11.1924 0 25 0V50Z" fill="#466289"/>
<path d="M25 45.6522L22.8261 23.913L45.6522 25C45.6522 36.388 36.3881 45.6522 25 45.6522Z" fill="#BEC8D6"/>
<path d="M25 4.34782C36.3881 4.34782 45.6522 13.612 45.6522 25H22.8261L25 4.34782Z" fill="#DAE0E7"/>
<path d="M25 25V45.6522C13.612 45.6522 4.34784 36.388 4.34784 25L14.6739 21.7391L25 25Z" fill="#DAE0E7"/>
<path d="M25 4.34782V25H4.34784C4.34784 13.612 13.612 4.34782 25 4.34782Z" fill="white"/>
<path d="M16.5229 13.5775L19.3467 11.9471L17.7163 9.12328L14.8925 10.7537L16.5229 13.5775Z" fill="#DAE0E7"/>
<path d="M11.9474 19.347L13.5778 16.5232L10.754 14.8928L9.12362 17.7166L11.9474 19.347Z" fill="#DAE0E7"/>
<path d="M13.5775 33.4768L11.9471 30.653L9.12326 32.2834L10.7536 35.1072L13.5775 33.4768Z" fill="#BEC8D6"/>
<path d="M19.3472 38.0526L16.5234 36.4223L14.893 39.2461L17.7168 40.8764L19.3472 38.0526Z" fill="#BEC8D6"/>
<path d="M33.4769 36.4228L30.6531 38.0532L32.2835 40.877L35.1073 39.2466L33.4769 36.4228Z" fill="#A3B1C4"/>
<path d="M38.0524 30.6527L36.422 33.4766L39.2458 35.1069L40.8762 32.2831L38.0524 30.6527Z" fill="#A3B1C4"/>
<path d="M36.2219 11.5496L25.0773 22.6942V27.3058L38.5277 13.8554L36.2219 11.5496Z" fill="#354A67"/>
<path d="M19.6971 17.314L17.3913 19.6198L25.0773 27.3058V22.6942L19.6971 17.314Z" fill="#466289"/>
<path d="M26.6304 39.1304H25V42.3913H26.6304V39.1304Z" fill="#A3B1C4"/>
<path d="M26.6304 7.6087H25V10.8696H26.6304V7.6087Z" fill="#BEC8D6"/>
<path d="M25 39.1304H23.3696V42.3913H25V39.1304Z" fill="#BEC8D6"/>
<path d="M25 7.6087H23.3696V10.8696H25V7.6087Z" fill="#DAE0E7"/>
<path d="M42.3913 25H39.1304V26.6304H42.3913V25Z" fill="#A3B1C4"/>
<path d="M42.3913 23.3696H39.1304V25H42.3913V23.3696Z" fill="#BEC8D6"/>
<path d="M10.8696 25H7.6087V26.6304H10.8696V25Z" fill="#BEC8D6"/>
<path d="M10.8696 23.3696H7.6087V25H10.8696V23.3696Z" fill="#DAE0E7"/>
</svg>
