<svg width="50" height="50" viewBox="0 0 50 50" fill="none" xmlns="http://www.w3.org/2000/svg">
<g clip-path="url(#clip0)">
<path d="M24.9999 50.0008C38.807 50.0008 49.9998 38.808 49.9998 25.0009C49.9998 11.1938 38.807 0.00100708 24.9999 0.00100708C11.1928 0.00100708 0 11.1938 0 25.0009C0 38.808 11.1928 50.0008 24.9999 50.0008Z" fill="#78A8A0"/>
<path d="M28.0865 19.2141L28.5232 16.2718L26.093 16.1166L25.6088 18.7954L28.0865 19.2141Z" fill="#FFD6CF"/>
<path opacity="0.32" d="M28.276 18.1329L28.5232 16.2718L26.11 16.0197L25.7992 17.7087L28.276 18.1329Z" fill="#831232"/>
<path d="M13.9543 42.1955L19.4655 36.9175L21.453 30.1147H24.4944L22.3041 38.0708C22.2456 38.2891 22.1406 38.4827 22.0042 38.6463C21.953 38.7203 21.8959 38.7913 21.8301 38.857L15.3715 45.1047L13.9543 42.1955Z" fill="#347642"/>
<g opacity="0.53">
<path opacity="0.53" d="M21.453 30.1147L20.6859 32.7403H23.7716L24.4945 30.1147H21.453Z" fill="#2B5448"/>
</g>
<path d="M30.4681 9.69588C30.1171 9.31882 29.6418 9.10097 29.1294 9.08258L26.8691 9.00128C25.8067 8.96409 24.9147 9.79501 24.8765 10.8555L24.7342 14.8141C24.7157 15.3264 24.8989 15.8163 25.2498 16.1934C25.6007 16.5706 26.0761 16.7883 26.5885 16.8068L28.8487 16.8881C28.8722 16.889 28.8957 16.8894 28.9192 16.8894C29.4058 16.8894 29.8682 16.7074 30.228 16.3726C30.6051 16.0216 30.823 15.5462 30.8413 15.0339L30.9838 11.0753C31.0022 10.5628 30.8191 10.0729 30.4681 9.69588Z" fill="#FFD6CF"/>
<path d="M30.8329 10.2401C30.7467 10.0426 30.6266 9.85873 30.4751 9.69588C30.1242 9.31882 29.6488 9.10097 29.1365 9.08258L26.8762 9.00128C25.8137 8.96409 24.9218 9.79501 24.8836 10.8555L24.7993 13.1987C25.7256 13.0291 29.0091 12.301 30.8329 10.2401Z" fill="#C71C4B"/>
<path d="M29.0789 21.4959C29.3233 20.1011 28.3821 18.76 26.9873 18.5155L24.3537 18.054C23.9336 17.9803 23.5297 18.2639 23.4561 18.6839L21.453 30.1147L23.9593 30.5538C23.9736 30.5829 23.9873 30.6122 24.0037 30.6407L28.1946 38.039V46.1976L31.238 46.5512V37.7385C31.238 37.6455 31.2283 37.5549 31.2122 37.4664C31.1929 37.2543 31.1303 37.0431 31.0172 36.8474L27.4822 30.6069L28.4571 25.0437L29.0789 21.4959Z" fill="#71CE93"/>
<path d="M24.8182 21.4047L30.6053 27.1917L30.6419 27.1551L30.644 27.2044L37.9187 26.8908L37.7972 24.0745L31.7359 24.3359L27.1492 19.9397L24.8182 21.4047Z" fill="#71CE93"/>
<path d="M16.6315 48.0138L12.3839 43.7663L13.9547 42.1955L17.1774 46.2655C17.4786 46.6459 17.448 47.1914 17.1061 47.5358L16.6315 48.0138Z" fill="#D8EDDE"/>
<path d="M37.7972 24.0745L41.6161 23.8811L40.5075 26.827L37.9187 26.8908L37.7972 24.0745Z" fill="#FFD6CF"/>
<path d="M31.2122 37.4664C31.193 37.2543 31.1304 37.0431 31.0173 36.8474L27.4823 30.6069L27.8589 28.4578L21.9202 27.4491L21.453 30.1147L23.9593 30.5538C23.9737 30.583 23.9873 30.6122 24.0037 30.6407L28.1946 38.039V46.1976L31.2381 46.9681V37.7385C31.2381 37.6456 31.2284 37.5549 31.2122 37.4664Z" fill="#3F8E50"/>
<path d="M27.191 14.0754C27.8155 14.0754 28.3218 13.5691 28.3218 12.9446C28.3218 12.3201 27.8155 11.8138 27.191 11.8138C26.5665 11.8138 26.0602 12.3201 26.0602 12.9446C26.0602 13.5691 26.5665 14.0754 27.191 14.0754Z" fill="#FFD6CF"/>
<path d="M34.2017 48.4191H28.1947V46.1978L33.3513 46.7969C33.8333 46.8528 34.1974 47.2602 34.1992 47.7455L34.2017 48.4191Z" fill="#D8EDDE"/>
</g>
<defs>
<clipPath id="clip0">
<rect width="50" height="50" fill="white"/>
</clipPath>
</defs>
</svg>
